<svg xmlns="http://www.w3.org/2000/svg" xmlns:xlink="http://www.w3.org/1999/xlink" width="100" height="100" viewBox="0 0 100 100"><circle stroke="none" fill="#FFFFFF" r="48%" cx="50%" cy="50%"></circle><g transform="translate(50 50) scale(0.69 0.69) rotate(0) translate(-50 -50)" style="fill:#000000"><svg fill="#000000" xmlns="http://www.w3.org/2000/svg" data-name="Laag 1" viewBox="0 0 100 100" x="0px" y="0px"><title>Tekengebied 3 kopie 10</title><polygon points="75.91 78.29 74.81 77.28 73.73 76.29 26.51 76.29 25.43 77.28 24.33 78.29 24.2 78.41 24.2 79.61 77.35 79.61 75.91 78.29"></polygon><polygon points="79.01 28.17 78.01 29.09 78.01 70.17 79.01 71.08 80.01 72 81.34 73.22 81.34 26.04 80.01 27.26 79.01 28.17"></polygon><polygon points="77.48 19.52 78.57 18.52 21.67 18.52 22.76 19.52 23.86 20.52 76.38 20.52 77.48 19.52"></polygon><polygon points="22.25 70.14 22.25 29.11 21.25 28.19 20.25 27.27 20.25 71.98 21.25 71.06 22.25 70.14"></polygon><path d="M65.82,27a4.87,4.87,0,0,1,2.66.8l3.91-3.59H27.85l16.41,15L47,33.8l5.52,8.57,9-8.28A4.83,4.83,0,0,1,65.82,27Z"></path><polygon points="39.88 47.78 40.76 46.07 25.28 31.88 25.28 57.72 28.05 57.72 36.93 43.28 39.88 47.78"></polygon><polygon points="74.36 57.72 74.36 32.44 63.38 42.5 72.93 57.72 74.36 57.72"></polygon><polygon points="88.85 10.36 79.95 18.52 78.86 19.52 77.77 20.52 75.98 22.16 75.81 22.31 75.64 22.47 74.11 23.87 73.95 24.02 73.78 24.18 69.21 28.37 62.12 34.87 53.07 43.16 51.01 45.05 50.12 45.86 49.23 45.05 43.82 40.09 26.46 24.18 26.29 24.02 26.13 23.87 24.6 22.47 24.43 22.31 24.26 22.16 22.47 20.52 21.38 19.52 20.29 18.52 11.39 10.36 7.99 7.24 4.24 11.33 20.25 26.01 21.25 26.93 22.25 27.84 23.89 29.35 24.04 29.48 24.2 29.63 24.97 30.34 25.13 30.48 25.28 30.62 41.19 45.21 45.12 48.81 46.02 49.62 37.18 57.72 37.02 57.87 36.85 58.03 34.56 60.12 24.2 69.62 24.04 69.77 23.89 69.91 22.25 71.41 21.25 72.33 20.25 73.24 8.45 84.06 11.39 87.26 12.2 88.15 22.96 78.29 23.89 77.43 24.04 77.3 24.06 77.28 24.2 77.15 25.14 76.29 42.86 60.04 45.06 58.03 45.23 57.87 45.4 57.72 50.12 53.39 54.84 57.72 55.01 57.87 55.18 58.03 57.23 59.9 75.1 76.29 76.18 77.28 77.28 78.29 78.72 79.61 78.9 79.77 79.06 79.92 88.04 88.15 88.85 87.26 91.79 84.06 81.65 74.76 81.5 74.63 81.34 74.48 80.01 73.26 79.01 72.34 78.01 71.43 65.35 59.83 63.39 58.03 63.22 57.87 63.06 57.72 54.22 49.62 55.12 48.81 62.88 41.7 74.36 31.17 74.51 31.03 74.67 30.89 78.01 27.82 79.01 26.91 80.01 25.99 81.34 24.77 81.5 24.62 81.65 24.49 96 11.33 92.25 7.24 88.85 10.36"></polygon></svg></g></svg>