<svg fill="#4D4D4D" xmlns="http://www.w3.org/2000/svg" xmlns:xlink="http://www.w3.org/1999/xlink" version="1.1" x="0px" y="0px" viewBox="0 0 95 95" enable-background="new 0 0 95 95" xml:space="preserve"><g><g><path d="M73.302,28.62c-1.063-1.064-2.805-1.064-3.867,0L42.079,55.975c-1.064,1.064-2.806,1.064-3.869,0L25.564,43.33    c-1.063-1.063-2.804-1.063-3.868,0l-1.377,1.377c-1.063,1.063-1.061,2.802,0.008,3.86L38.29,66.385    c1.068,1.061,2.813,1.057,3.876-0.008l32.513-32.514c1.064-1.063,1.064-2.804,0-3.867L73.302,28.62z"></path></g><g><path d="M47.501,88.132c-22.405,0-40.633-18.228-40.633-40.633S25.096,6.868,47.501,6.868c22.404,0,40.631,18.227,40.631,40.632    S69.905,88.132,47.501,88.132z M47.501,9.868C26.749,9.868,9.868,26.749,9.868,47.5s16.881,37.633,37.633,37.633    c20.75,0,37.631-16.882,37.631-37.633S68.251,9.868,47.501,9.868z"></path></g></g></svg>