<svg fill="#4D4D4D" xmlns="http://www.w3.org/2000/svg" data-name="Layer 2" viewBox="0 0 300 300" x="0px" y="0px"><title>SEO-Web_IconSet</title><path d="M57.14,51.11q0-8.73-4-13.94T41.71,32q-7.38,0-11.4,5.2t-4,13.94q0,8.74,4,13.94t11.4,5.2q7.36,0,11.4-5.2T57.14,51.11Zm-15.43,9q-5,0-5-9t5-9q5,0,5,9T41.71,60.11Z"></path><path d="M86.06,65.05q4-5.2,4-13.94t-4-13.94Q82,32,74.66,32t-11.41,5.2q-4,5.2-4,13.94t4,13.94q4,5.2,11.41,5.2T86.06,65.05Zm-11.4-4.94q-5,0-5-9t5-9q5,0,5,9T74.66,60.11Z"></path><path d="M120.07,65.05q4-5.2,4-13.94t-4-13.94q-4-5.19-11.4-5.2t-11.4,5.2q-4,5.2-4,13.94t4,13.94q4,5.2,11.4,5.2T120.07,65.05Zm-11.4-4.94q-5,0-5-9t5-9q5,0,5,9T108.67,60.11Z"></path><path d="M130.82,44.6h0a2.9,2.9,0,0,1,3.57,2.82V66.52a2.9,2.9,0,0,0,2.9,2.9H142a2.9,2.9,0,0,0,2.9-2.9V35.7a2.89,2.89,0,0,0-2.9-2.89H136.5a2.79,2.79,0,0,0-1,.17l-7.3,2.63a2.91,2.91,0,0,0-1.81,3.5l.95,3.44A2.89,2.89,0,0,0,130.82,44.6Z"></path><path d="M181,51.11q0-8.73-4-13.94T165.56,32q-7.38,0-11.4,5.2t-4,13.94q0,8.74,4,13.94t11.4,5.2q7.38,0,11.4-5.2T181,51.11Zm-15.43,9q-5,0-5-9t5-9q5,0,5,9T165.56,60.11Z"></path><path d="M199.57,70.25q7.38,0,11.41-5.2t4-13.94q0-8.73-4-13.94T199.57,32q-7.37,0-11.4,5.2t-4,13.94q0,8.74,4,13.94T199.57,70.25Zm0-28.13q5,0,5,9t-5,9q-5,0-5-9T199.57,42.12Z"></path><path d="M217.3,39.11l.95,3.44a2.89,2.89,0,0,0,3.47,2.05h0a2.91,2.91,0,0,1,3.58,2.82V66.52a2.89,2.89,0,0,0,2.89,2.9h4.67a2.9,2.9,0,0,0,2.9-2.9V35.7a2.89,2.89,0,0,0-2.9-2.89H227.4a2.73,2.73,0,0,0-1,.17l-7.3,2.63A2.9,2.9,0,0,0,217.3,39.11Z"></path><path d="M260.73,32q-7.38,0-11.41,5.2t-4,13.94q0,8.74,4,13.94t11.41,5.2q7.36,0,11.4-5.2t4-13.94q0-8.73-4-13.94T260.73,32Zm0,28.14q-5,0-5-9t5-9q5,0,5,9T260.73,60.11Z"></path><path d="M34,97.13v19.08a2.91,2.91,0,0,0,2.91,2.91h4.64a2.91,2.91,0,0,0,2.91-2.91V85.42a2.91,2.91,0,0,0-2.91-2.91H36a3,3,0,0,0-1,.17l-7.29,2.63A2.9,2.9,0,0,0,26,88.82l.94,3.42a2.91,2.91,0,0,0,3.49,2.06h0A2.91,2.91,0,0,1,34,97.13Z"></path><path d="M75.89,114.75q4-5.2,4-13.94t-4-13.93q-4-5.2-11.4-5.21t-11.4,5.21q-4,5.2-4,13.93t4,13.94q4,5.2,11.4,5.21T75.89,114.75ZM59.52,100.81q0-9,5-9t5,9q0,9-5,9T59.52,100.81Z"></path><path d="M99,116.21V85.42a2.91,2.91,0,0,0-2.91-2.91H90.64a3,3,0,0,0-1,.17l-7.29,2.63a2.91,2.91,0,0,0-1.82,3.51l.94,3.42A2.91,2.91,0,0,0,85,94.3h0a2.91,2.91,0,0,1,3.59,2.83v19.08a2.91,2.91,0,0,0,2.91,2.91h4.64A2.91,2.91,0,0,0,99,116.21Z"></path><path d="M130.49,114.75q4-5.2,4-13.94t-4-13.93q-4-5.2-11.41-5.21t-11.4,5.21q-4,5.2-4,13.93t4,13.94q4,5.2,11.4,5.21T130.49,114.75Zm-11.41-4.94q-5,0-5-9t5-9q5,0,5,9T119.08,109.81Z"></path><path d="M153.55,120q7.38,0,11.4-5.21t4-13.94q0-8.73-4-13.93t-11.4-5.21q-7.38,0-11.4,5.21t-4,13.93q0,8.75,4,13.94T153.55,120Zm0-28.14q5,0,5,9t-5,9q-5,0-5-9T153.55,91.82Z"></path><path d="M180.82,97.13v19.08a2.91,2.91,0,0,0,2.91,2.91h4.64a2.91,2.91,0,0,0,2.91-2.91V85.42a2.91,2.91,0,0,0-2.91-2.91H182.9a3,3,0,0,0-1,.17l-7.29,2.63a2.91,2.91,0,0,0-1.82,3.51l.94,3.42a2.91,2.91,0,0,0,3.49,2.06h0A2.91,2.91,0,0,1,180.82,97.13Z"></path><path d="M212.76,82.51h-5.47a3,3,0,0,0-1,.17L199,85.31a2.91,2.91,0,0,0-1.82,3.51l.94,3.42a2.91,2.91,0,0,0,3.49,2.06h0a2.91,2.91,0,0,1,3.59,2.83v19.08a2.91,2.91,0,0,0,2.91,2.91h4.64a2.91,2.91,0,0,0,2.91-2.91V85.42A2.91,2.91,0,0,0,212.76,82.51Z"></path><path d="M270.12,82.51h-5.47a3,3,0,0,0-1,.17l-7.29,2.63a2.91,2.91,0,0,0-1.82,3.51l.95,3.42A2.89,2.89,0,0,0,259,94.3h0a2.91,2.91,0,0,1,3.59,2.83v19.08a2.91,2.91,0,0,0,2.91,2.91h4.64a2.91,2.91,0,0,0,2.91-2.91V85.42A2.91,2.91,0,0,0,270.12,82.51Z"></path><path d="M225.88,86.88q-4,5.2-4,13.93t4,13.94q4,5.2,11.4,5.21t11.4-5.21q4-5.2,4-13.94t-4-13.93q-4-5.2-11.4-5.21T225.88,86.88Zm11.4,4.94q5,0,5,9t-5,9q-5,0-5-9T237.28,91.82Z"></path><path d="M57.14,151.55q0-8.73-4-13.94t-11.4-5.2q-7.38,0-11.4,5.2t-4,13.94q0,8.73,4,13.94t11.4,5.2q7.36,0,11.4-5.2T57.14,151.55Zm-15.43,9q-5,0-5-9t5-9q5,0,5,9T41.71,160.55Z"></path><path d="M76.79,132.41q-7.38,0-11.4,5.2t-4,13.94q0,8.73,4,13.94t11.4,5.2q7.36,0,11.4-5.2t4-13.94q0-8.73-4-13.94T76.79,132.41Zm0,28.14q-5,0-5-9t5-9q5,0,5,9T76.79,160.55Z"></path><path d="M99.4,137.61q-4,5.2-4,13.94t4,13.94q4,5.2,11.4,5.2t11.4-5.2q4-5.2,4-13.94t-4-13.94q-4-5.21-11.4-5.2T99.4,137.61Zm11.4,4.95q5,0,5,9t-5,9q-5,0-5-9T110.8,142.56Z"></path><path d="M147,166.94V136.16a2.91,2.91,0,0,0-2.91-2.91h-5.47a2.79,2.79,0,0,0-1,.17l-7.29,2.63a2.91,2.91,0,0,0-1.82,3.51l.95,3.42A2.91,2.91,0,0,0,133,145h0a2.91,2.91,0,0,1,3.59,2.83v19.07a2.92,2.92,0,0,0,2.91,2.92h4.64A2.91,2.91,0,0,0,147,166.94Z"></path><path d="M168.76,132.41q-7.38,0-11.4,5.2t-4,13.94q0,8.73,4,13.94t11.4,5.2q7.37,0,11.4-5.2t4-13.94q0-8.73-4-13.94T168.76,132.41Zm0,28.14q-5,0-5-9t5-9q5,0,5,9T168.76,160.55Z"></path><path d="M202.77,170.69q7.38,0,11.4-5.2t4-13.94q0-8.73-4-13.94t-11.4-5.2q-7.38,0-11.4,5.2t-4,13.94q0,8.73,4,13.94T202.77,170.69Zm0-28.13q5,0,5,9t-5,9q-5,0-5-9T202.77,142.56Z"></path><path d="M228.52,147.87v19.07a2.92,2.92,0,0,0,2.91,2.92h4.64a2.91,2.91,0,0,0,2.91-2.92V136.16a2.91,2.91,0,0,0-2.91-2.91H230.6a2.79,2.79,0,0,0-1,.17l-7.29,2.63a2.91,2.91,0,0,0-1.82,3.51l.95,3.42a2.91,2.91,0,0,0,3.48,2.06h0A2.91,2.91,0,0,1,228.52,147.87Z"></path><path d="M272.13,165.49q4-5.2,4-13.94t-4-13.94q-4-5.21-11.4-5.2t-11.41,5.2q-4,5.2-4,13.94t4,13.94q4,5.2,11.41,5.2T272.13,165.49Zm-16.37-13.94q0-9,5-9t5,9q0,9-5,9T255.76,151.55Z"></path><path d="M34,197.57v19.08a2.91,2.91,0,0,0,2.91,2.91h4.64a2.92,2.92,0,0,0,2.91-2.91V185.86A2.91,2.91,0,0,0,41.52,183H36a3,3,0,0,0-1,.17l-7.29,2.63A2.9,2.9,0,0,0,26,189.26l.94,3.42a2.92,2.92,0,0,0,3.49,2.06h0A2.91,2.91,0,0,1,34,197.57Z"></path><path d="M68.37,216.65V185.86A2.91,2.91,0,0,0,65.46,183H60a3,3,0,0,0-1,.17l-7.29,2.63a2.9,2.9,0,0,0-1.82,3.51l.94,3.42a2.92,2.92,0,0,0,3.49,2.06h0a2.91,2.91,0,0,1,3.59,2.83v19.08a2.91,2.91,0,0,0,2.91,2.91h4.64A2.92,2.92,0,0,0,68.37,216.65Z"></path><path d="M91.24,216.65V185.86A2.91,2.91,0,0,0,88.33,183H82.86a3,3,0,0,0-1,.17l-7.29,2.63a2.91,2.91,0,0,0-1.82,3.51l.95,3.42a2.9,2.9,0,0,0,3.48,2.06h0a2.91,2.91,0,0,1,3.59,2.83v19.08a2.92,2.92,0,0,0,2.91,2.91h4.64A2.91,2.91,0,0,0,91.24,216.65Z"></path><path d="M110.85,182.11q-7.36,0-11.4,5.21t-4,13.93q0,8.75,4,13.94t11.4,5.21q7.38,0,11.41-5.21t4-13.94q0-8.73-4-13.93T110.85,182.11Zm0,28.14q-5,0-5-9t5-9q5,0,5,9T110.85,210.25Z"></path><path d="M143.8,220.4q7.38,0,11.4-5.21t4-13.94q0-8.73-4-13.93t-11.4-5.21q-7.37,0-11.4,5.21t-4,13.93q0,8.75,4,13.94T143.8,220.4Zm0-28.14q5,0,5,9t-5,9q-5,0-5-9T143.8,192.26Z"></path><path d="M179,216.65V185.86A2.91,2.91,0,0,0,176,183h-5.47a3,3,0,0,0-1,.17l-7.29,2.63a2.91,2.91,0,0,0-1.82,3.51l.94,3.42a2.92,2.92,0,0,0,3.49,2.06h0a2.91,2.91,0,0,1,3.59,2.83v19.08a2.91,2.91,0,0,0,2.91,2.91H176A2.92,2.92,0,0,0,179,216.65Z"></path><path d="M273,216.65V185.86a2.91,2.91,0,0,0-2.91-2.91h-5.47a3,3,0,0,0-1,.17l-7.29,2.63a2.91,2.91,0,0,0-1.82,3.51l.95,3.42a2.9,2.9,0,0,0,3.48,2.06h0a2.91,2.91,0,0,1,3.59,2.83v19.08a2.92,2.92,0,0,0,2.91,2.91h4.64A2.91,2.91,0,0,0,273,216.65Z"></path><path d="M199.63,182.11q-7.38,0-11.4,5.21t-4,13.93q0,8.75,4,13.94t11.4,5.21q7.37,0,11.4-5.21t4-13.94q0-8.73-4-13.93T199.63,182.11Zm0,28.14q-5,0-5-9t5-9q5,0,5,9T199.63,210.25Z"></path><path d="M234.71,220.4q7.36,0,11.4-5.21t4-13.94q0-8.73-4-13.93t-11.4-5.21q-7.38,0-11.41,5.21t-4,13.93q0,8.75,4,13.94T234.71,220.4Zm0-28.14q5,0,5,9t-5,9q-5,0-5-9T234.71,192.26Z"></path><path d="M41.71,232.85q-7.38,0-11.4,5.2t-4,13.94q0,8.75,4,13.94t11.4,5.2q7.36,0,11.4-5.2t4-13.94q0-8.73-4-13.94T41.71,232.85Zm0,28.14q-5,0-5-9t5-9q5,0,5,9T41.71,261Z"></path><path d="M75.72,232.85q-7.36,0-11.4,5.2t-4,13.94q0,8.75,4,13.94t11.4,5.2q7.38,0,11.4-5.2t4-13.94q0-8.73-4-13.94T75.72,232.85Zm0,28.14q-5,0-5-9t5-9q5,0,5,9T75.72,261Z"></path><path d="M110.8,232.85q-7.38,0-11.4,5.2t-4,13.94q0,8.75,4,13.94t11.4,5.2q7.38,0,11.4-5.2t4-13.94q0-8.73-4-13.94T110.8,232.85Zm0,28.14q-5,0-5-9t5-9q5,0,5,9T110.8,261Z"></path><path d="M128.53,240l.95,3.42a2.91,2.91,0,0,0,3.48,2.06h0a2.91,2.91,0,0,1,3.59,2.83v19.08a2.92,2.92,0,0,0,2.91,2.91h4.64a2.91,2.91,0,0,0,2.91-2.91V236.6a2.91,2.91,0,0,0-2.91-2.91h-5.47a2.79,2.79,0,0,0-1,.17l-7.29,2.63A2.91,2.91,0,0,0,128.53,240Z"></path><path d="M167.69,232.85q-7.38,0-11.4,5.2t-4,13.94q0,8.75,4,13.94t11.4,5.2q7.38,0,11.4-5.2t4-13.94q0-8.73-4-13.94T167.69,232.85Zm0,28.14q-5,0-5-9t5-9q5,0,5,9T167.69,261Z"></path><path d="M202.77,232.85q-7.38,0-11.4,5.2t-4,13.94q0,8.75,4,13.94t11.4,5.2q7.38,0,11.4-5.2t4-13.94q0-8.73-4-13.94T202.77,232.85Zm0,28.14q-5,0-5-9t5-9q5,0,5,9T202.77,261Z"></path><path d="M220.5,240l.95,3.42a2.91,2.91,0,0,0,3.48,2.06h0a2.91,2.91,0,0,1,3.59,2.83v19.08a2.92,2.92,0,0,0,2.91,2.91h4.64a2.91,2.91,0,0,0,2.91-2.91V236.6a2.91,2.91,0,0,0-2.91-2.91H230.6a2.79,2.79,0,0,0-1,.17l-7.29,2.63A2.91,2.91,0,0,0,220.5,240Z"></path><path d="M260.73,232.85q-7.38,0-11.41,5.2t-4,13.94q0,8.75,4,13.94t11.41,5.2q7.36,0,11.4-5.2t4-13.94q0-8.73-4-13.94T260.73,232.85Zm0,28.14q-5,0-5-9t5-9q5,0,5,9T260.73,261Z"></path></svg>