<svg fill="#4D4D4D" xmlns="http://www.w3.org/2000/svg" xmlns:xlink="http://www.w3.org/1999/xlink" version="1.1" x="0px" y="0px" viewBox="0 0 595.28 595.28" enable-background="new 0 0 595.28 595.28" xml:space="preserve"><g><polygon points="114.03,150.884 105.122,178.223 76.443,178.223 99.63,195.065 90.844,222.279 114.03,205.439 137.22,222.279    128.31,195.065 151.62,178.223 122.939,178.223  "></polygon><polygon points="191.403,70.339 182.495,97.555 153.817,97.555 177.003,114.518 168.095,141.733 191.403,124.891 214.593,141.733    205.684,114.518 228.871,97.555 200.192,97.555  "></polygon><polygon points="85.229,316.74 108.416,333.58 99.507,306.244 122.818,289.401 94.138,289.401 85.229,262.188 76.321,289.401    47.64,289.401 70.829,306.244 62.042,333.58  "></polygon><polygon points="297.703,40.806 288.794,68.142 260.113,68.142 283.303,84.984 274.391,112.32 297.703,95.48 320.889,112.32    311.98,84.984 335.17,68.142 306.489,68.142  "></polygon><polygon points="306.489,510.418 297.703,483.08 288.794,510.418 260.113,510.418 283.303,527.258 274.391,554.474    297.703,537.631 320.889,554.474 311.98,527.258 335.17,510.418  "></polygon><polygon points="122.939,399.605 114.03,372.266 105.122,399.605 76.443,399.605 99.63,416.444 90.844,443.783 114.03,426.94    137.22,443.783 128.31,416.444 151.62,399.605  "></polygon><polygon points="200.192,481.373 191.403,454.034 182.495,481.373 153.817,481.373 177.003,498.212 168.095,525.551    191.403,508.708 214.593,525.551 205.684,498.212 228.871,481.373  "></polygon><polygon points="458.064,222.279 481.25,205.439 504.562,222.279 495.653,195.065 518.84,178.223 490.159,178.223 481.25,150.884    472.464,178.223 443.786,178.223 466.973,195.065  "></polygon><polygon points="404,70.339 395.091,97.555 366.41,97.555 389.599,114.518 380.69,141.733 404,124.891 427.188,141.733    418.277,114.518 441.466,97.555 412.785,97.555  "></polygon><polygon points="547.64,289.401 518.962,289.401 510.054,262.188 501.265,289.401 472.587,289.401 495.773,306.244 486.864,333.58    510.054,316.74 533.362,333.58 524.454,306.244  "></polygon><polygon points="490.159,399.605 481.25,372.266 472.464,399.605 443.786,399.605 466.973,416.444 458.064,443.783 481.25,426.94    504.562,443.783 495.653,416.444 518.84,399.605  "></polygon><polygon points="412.785,481.373 404,454.034 395.091,481.373 366.41,481.373 389.599,498.212 380.69,525.551 404,508.708    427.188,525.551 418.277,498.212 441.466,481.373  "></polygon></g></svg>