<svg fill="#4D4D4D" xmlns="http://www.w3.org/2000/svg" xmlns:xlink="http://www.w3.org/1999/xlink" version="1.1" x="0px" y="0px" viewBox="0 0 64 64" style="enable-background:new 0 0 64 64;" xml:space="preserve"><title>Permission icon</title><desc>Permission icon for website, application, printing, document, poster design, etc.</desc><path d="M59,17h-8V5c0-1.7-1.3-3-3-3H12c-1.7,0-3,1.3-3,3v54c0,1.7,1.3,3,3,3h30.4l8.6-8.6V47h-2v5h-5c-1.7,0-3,1.3-3,3v5H12  c-0.6,0-1-0.4-1-1V5c0-0.6,0.4-1,1-1h36c0.6,0,1,0.4,1,1v12h-8c-1.7,0-3,1.3-3,3v18c0,1.7,1.3,3,3,3h5.6l3.4,3.4l3.4-3.4H59  c1.7,0,3-1.3,3-3V20C62,18.3,60.7,17,59,17z M44,54h3.6L43,58.6V55C43,54.4,43.4,54,44,54z M60,38c0,0.6-0.4,1-1,1h-6.4L50,41.6  L47.4,39H41c-0.6,0-1-0.4-1-1V20c0-0.6,0.4-1,1-1h18c0.6,0,1,0.4,1,1V38z"></path><rect x="24" y="7" width="12" height="2"></rect><rect x="14" y="12" width="3" height="2"></rect><rect x="19" y="12" width="27" height="2"></rect><rect x="14" y="18" width="3" height="2"></rect><rect x="19" y="18" width="16" height="2"></rect><rect x="14" y="24" width="3" height="2"></rect><rect x="19" y="24" width="16" height="2"></rect><rect x="14" y="30" width="3" height="2"></rect><rect x="19" y="30" width="16" height="2"></rect><rect x="14" y="36" width="3" height="2"></rect><rect x="19" y="36" width="16" height="2"></rect><rect x="14" y="42" width="3" height="2"></rect><rect x="19" y="42" width="16" height="2"></rect><rect x="14" y="48" width="3" height="2"></rect><rect x="19" y="48" width="27" height="2"></rect><rect x="14" y="54" width="3" height="2"></rect><rect x="19" y="54" width="19" height="2"></rect><path d="M54,27.2V25c0-2.2-1.8-4-4-4s-4,1.8-4,4h2c0-1.1,0.9-2,2-2s2,0.9,2,2v2h-5c-1.7,0-3,1.3-3,3v4c0,1.7,1.3,3,3,3h6  c1.7,0,3-1.3,3-3v-4C56,28.7,55.2,27.6,54,27.2z M54,34c0,0.6-0.4,1-1,1h-6c-0.6,0-1-0.4-1-1v-4c0-0.6,0.4-1,1-1h6c0.6,0,1,0.4,1,1  V34z"></path></svg>