<svg fill="#4D4D4D" xmlns="http://www.w3.org/2000/svg" xmlns:xlink="http://www.w3.org/1999/xlink" version="1.1" x="0px" y="0px" viewBox="0 0 100 100" style="enable-background:new 0 0 100 100;" xml:space="preserve"><path d="M50,5C25.2,5,5,25.2,5,50s20.2,45,45,45s45-20.2,45-45S74.8,5,50,5z M27,82c0-0.1,0-0.1,0-0.2C27,69,37.4,58.6,50.1,58.6  c12.8,0,23.1,10.4,23.2,23.1c-6.5,4.8-14.6,7.7-23.3,7.7C41.4,89.5,33.4,86.7,27,82z M50.1,51c-5.4,0-9.7-4.4-9.7-9.7  c0-5.4,4.4-9.7,9.7-9.7c5.4,0,9.7,4.4,9.7,9.7C59.9,46.7,55.5,51,50.1,51z M78.4,77.3c-1.7-11-9.8-20-20.3-23  c4.3-2.7,7.3-7.5,7.3-13c0-8.4-6.8-15.2-15.2-15.2S35,32.9,35,41.3c0,5.5,2.9,10.3,7.3,13C31.7,57.4,23.6,66.5,22,77.6  C15,70.5,10.7,60.7,10.7,50c0-21.8,17.7-39.5,39.5-39.5S89.7,28.2,89.7,50C89.4,60.6,85.2,70.2,78.4,77.3z"></path></svg>