<svg fill="#4D4D4D" xmlns="http://www.w3.org/2000/svg" data-name="Layer 1" viewBox="0 0 128 128" x="0px" y="0px"><title>expand lines</title><path d="M78,9.63l.94.23a2,2,0,0,0,.5.06A2,2,0,0,0,79.9,6l-1-.25A2,2,0,0,0,78,9.63Z"></path><path d="M54.61,8.71l.3,0,1-.14a2,2,0,0,0-.54-4l-1,.15a2,2,0,0,0,.3,4Z"></path><path d="M46.8,10.42a2,2,0,0,0,.55-.08l.93-.26a2,2,0,0,0-1-3.86l-1,.28a2,2,0,0,0,.55,3.92Z"></path><path d="M62.57,8h1a2,2,0,0,0,0-4h-1a2,2,0,0,0,0,4Z"></path><path d="M70.35,8.33l1,.11h.24a2,2,0,0,0,.24-4l-1-.12a2,2,0,1,0-.42,4Z"></path><path d="M105.65,24.81a2,2,0,0,0,2.78-2.88l-.75-.71a2,2,0,1,0-2.73,2.92Z"></path><path d="M124.72,55.23a2,2,0,0,0-1.62,2.32q.08.48.16,1a2,2,0,0,0,2,1.69l.32,0a2,2,0,0,0,1.66-2.29q-.08-.51-.17-1A2,2,0,0,0,124.72,55.23Z"></path><path d="M121.26,50c.1.31.19.62.28.93a2,2,0,0,0,3.84-1.14q-.15-.5-.3-1a2,2,0,1,0-3.82,1.2Z"></path><path d="M118.48,42.82l.4.88a2,2,0,1,0,3.66-1.62l-.42-.94a2,2,0,0,0-3.63,1.68Z"></path><path d="M99,19.23l.78.57a2,2,0,0,0,2.38-3.21l-.83-.61A2,2,0,0,0,99,19.23Z"></path><path d="M123.94,65.23q0,.48,0,1a2,2,0,0,0,2,1.94H126A2,2,0,0,0,128,66.08c0-.34,0-.69,0-1a2,2,0,0,0-2.09-1.91A2,2,0,0,0,123.94,65.23Z"></path><path d="M32.19,16.77a2,2,0,0,0,1-.29L34,16a2,2,0,0,0-2-3.46l-.89.52a2,2,0,0,0,1,3.72Z"></path><path d="M110.86,30.52A2,2,0,0,0,114,28l-.65-.79a2,2,0,1,0-3.08,2.55Z"></path><path d="M115.29,36.85a2,2,0,0,0,3.42-2.08l-.54-.88A2,2,0,1,0,114.79,36Z"></path><path d="M92.4,15.13l.85.47a2,2,0,1,0,2-3.49l-.91-.5a2,2,0,0,0-1.9,3.52Z"></path><path d="M9.08,39.14a2,2,0,0,0,2.73-.75l.48-.84a2,2,0,1,0-3.44-2l-.52.9A2,2,0,0,0,9.08,39.14Z"></path><path d="M5.82,46.45a2,2,0,0,0,2.61-1.1l.37-.89a2,2,0,1,0-3.68-1.58l-.4,1A2,2,0,0,0,5.82,46.45Z"></path><path d="M2,70a2,2,0,0,0,2-2q0-.49,0-1a2,2,0,0,0-2-2H2a2,2,0,0,0-2,2q0,.51,0,1A2,2,0,0,0,2,70Z"></path><path d="M3.53,54.11A2,2,0,0,0,6,52.69q.12-.47.25-.93a2,2,0,0,0-3.85-1.08q-.14.5-.27,1A2,2,0,0,0,3.53,54.11Z"></path><path d="M39.43,8.88l-.94.4A2,2,0,1,0,40.08,13l.89-.38a2,2,0,0,0-1.54-3.69Z"></path><path d="M88.87,11.15a2,2,0,0,0-1.12-2.6l-1-.38a2,2,0,1,0-1.43,3.74l.91.35a2,2,0,0,0,2.6-1.12Z"></path><path d="M2.25,62l.26,0a2,2,0,0,0,2-1.74c0-.32.08-.64.13-1a2,2,0,0,0-4-.58c0,.34-.1.68-.14,1A2,2,0,0,0,2.25,62Z"></path><path d="M25.61,21.31a2,2,0,0,0,1.24-.43l.76-.59a2,2,0,0,0-2.43-3.18l-.82.63a2,2,0,0,0,1.24,3.57Z"></path><path d="M13.25,32.32a2,2,0,0,0,2.8-.39l.59-.77a2,2,0,1,0-3.16-2.45l-.62.82A2,2,0,0,0,13.25,32.32Z"></path><path d="M19.67,26.66a2,2,0,0,0,1.43-.6l.69-.69A2,2,0,1,0,19,22.53l-.72.73a2,2,0,0,0,1.43,3.4Z"></path><path d="M12,104.31a2.5,2.5,0,0,1,.55-1.83A2.11,2.11,0,0,1,13.9,102,2,2,0,0,0,16,100.13,2,2,0,0,0,14.13,98a6.1,6.1,0,0,0-4.3,1.54A6.24,6.24,0,0,0,8,104.31V106a2,2,0,0,0,4,0Z"></path><path d="M30.76,90.2a14.07,14.07,0,0,1-5,3.8h2.84c4.08,0,7.41,3,7.41,6.63V120H4V100.63C4,97,7.32,94,11.41,94h2.84a14.07,14.07,0,0,1-5-3.8A10.86,10.86,0,0,0,0,100.63v21.25A2.21,2.21,0,0,0,2.28,124H37.72A2.21,2.21,0,0,0,40,121.88V100.63A10.86,10.86,0,0,0,30.76,90.2Z"></path><path d="M30,81.25a10,10,0,1,0-10,10A10,10,0,0,0,30,81.25Zm-16,0a6,6,0,1,1,6,6A6,6,0,0,1,14,81.25Z"></path><circle cx="10" cy="114" r="2"></circle><path d="M100,104.31a2.5,2.5,0,0,1,.55-1.83,2.1,2.1,0,0,1,1.35-.48,2,2,0,0,0,.22-4,6.1,6.1,0,0,0-4.3,1.54A6.24,6.24,0,0,0,96,104.31V106a2,2,0,1,0,4,0Z"></path><path d="M118.76,90.2a14.07,14.07,0,0,1-5,3.8h2.84c4.08,0,7.41,3,7.41,6.63V120H92V100.63C92,97,95.32,94,99.41,94h2.84a14.06,14.06,0,0,1-5-3.8A10.86,10.86,0,0,0,88,100.63v21.25A2.21,2.21,0,0,0,90.28,124h35.44a2.21,2.21,0,0,0,2.28-2.12V100.63A10.86,10.86,0,0,0,118.76,90.2Z"></path><path d="M108,91.25a10,10,0,1,0-10-10A10,10,0,0,0,108,91.25Zm0-16a6,6,0,1,1-6,6A6,6,0,0,1,108,75.25Z"></path><circle cx="98" cy="114" r="2"></circle><path d="M56,46.31a2.5,2.5,0,0,1,.55-1.83A2.1,2.1,0,0,1,57.9,44a2,2,0,0,0,.22-4,6.09,6.09,0,0,0-4.3,1.54A6.24,6.24,0,0,0,52,46.31V48a2,2,0,1,0,4,0Z"></path><path d="M75.41,32.34A14.1,14.1,0,0,1,71.58,36h1C76.68,36,80,39,80,42.63V62H48V42.63C48,39,51.32,36,55.41,36h1a14.1,14.1,0,0,1-3.82-3.66A10.79,10.79,0,0,0,44,42.63V63.88A2.21,2.21,0,0,0,46.28,66H81.72A2.21,2.21,0,0,0,84,63.88V42.63A10.79,10.79,0,0,0,75.41,32.34Z"></path><path d="M74,24.25a10,10,0,1,0-10,10A10,10,0,0,0,74,24.25Zm-16,0a6,6,0,1,1,6,6A6,6,0,0,1,58,24.25Z"></path><circle cx="54" cy="56" r="2"></circle><path d="M64,97a2,2,0,0,0,2-2V78.82l1.32,2.05a2,2,0,1,0,3.37-2.16l-5-7.79a2,2,0,0,0-3.37,0l-5,7.79a2,2,0,1,0,3.37,2.16L62,78.82V95A2,2,0,0,0,64,97Z"></path><path d="M82.68,106.15l-7.61-4.84a2,2,0,1,0-2.14,3.38L75,106H53l2.06-1.31a2,2,0,1,0-2.14-3.38l-7.61,4.84a2,2,0,0,0,0,3.7l7.61,4.84a2,2,0,1,0,2.14-3.38L53,110H75l-2.06,1.31a2,2,0,1,0,2.14,3.38l7.61-4.84a2,2,0,0,0,0-3.7Z"></path></svg>